<mxfile host="app.diagrams.net" agent="Mozilla/5.0 (Windows NT 10.0; Win64; x64) AppleWebKit/537.36 (KHTML, like Gecko) Chrome/131.0.0.0 Safari/537.36" version="25.0.3">
  <diagram name="Page-1" id="KpkE8aBuHASH41pwANk7">
    <mxGraphModel dx="1444" dy="811" grid="1" gridSize="10" guides="1" tooltips="1" connect="1" arrows="1" fold="1" page="1" pageScale="1" pageWidth="850" pageHeight="1100" math="0" shadow="0">
      <root>
        <mxCell id="0" />
        <mxCell id="1" parent="0" />
        <mxCell id="4CrbES1AH4iWRrPJDii6-1" value="Piece" style="swimlane;fontStyle=0;childLayout=stackLayout;horizontal=1;startSize=30;horizontalStack=0;resizeParent=1;resizeParentMax=0;resizeLast=0;collapsible=1;marginBottom=0;whiteSpace=wrap;html=1;" parent="1" vertex="1">
          <mxGeometry x="340" y="10" width="140" height="120" as="geometry" />
        </mxCell>
        <mxCell id="4CrbES1AH4iWRrPJDii6-3" value="&lt;div&gt;- _name&lt;/div&gt;+ MovePlace()&lt;div&gt;+ IsSelfCheck()&lt;/div&gt;&lt;div&gt;+ eat()&lt;/div&gt;" style="text;strokeColor=none;fillColor=none;align=left;verticalAlign=middle;spacingLeft=4;spacingRight=4;overflow=hidden;points=[[0,0.5],[1,0.5]];portConstraint=eastwest;rotatable=0;whiteSpace=wrap;html=1;" parent="4CrbES1AH4iWRrPJDii6-1" vertex="1">
          <mxGeometry y="30" width="140" height="60" as="geometry" />
        </mxCell>
        <mxCell id="4CrbES1AH4iWRrPJDii6-4" value="+IsMoveLegal()&lt;div&gt;+ func for isMoveLegal&lt;/div&gt;" style="text;strokeColor=none;fillColor=none;align=left;verticalAlign=middle;spacingLeft=4;spacingRight=4;overflow=hidden;points=[[0,0.5],[1,0.5]];portConstraint=eastwest;rotatable=0;whiteSpace=wrap;html=1;" parent="4CrbES1AH4iWRrPJDii6-1" vertex="1">
          <mxGeometry y="90" width="140" height="30" as="geometry" />
        </mxCell>
        <mxCell id="4CrbES1AH4iWRrPJDii6-9" value="King" style="swimlane;fontStyle=0;childLayout=stackLayout;horizontal=1;startSize=30;horizontalStack=0;resizeParent=1;resizeParentMax=0;resizeLast=0;collapsible=1;marginBottom=0;whiteSpace=wrap;html=1;" parent="1" vertex="1">
          <mxGeometry x="620" y="410" width="150" height="90" as="geometry" />
        </mxCell>
        <mxCell id="4CrbES1AH4iWRrPJDii6-10" value="&#xa;&lt;div style=&quot;forced-color-adjust: none; color: rgb(0, 0, 0); font-family: Helvetica; font-size: 12px; font-style: normal; font-variant-ligatures: normal; font-variant-caps: normal; font-weight: 400; letter-spacing: normal; orphans: 2; text-align: left; text-indent: 0px; text-transform: none; widows: 2; word-spacing: 0px; -webkit-text-stroke-width: 0px; white-space: normal; background-color: rgb(251, 251, 251); text-decoration-thickness: initial; text-decoration-style: initial; text-decoration-color: initial;&quot;&gt;+ MovePlace()&lt;div style=&quot;forced-color-adjust: none;&quot;&gt;+ IsSelfCheck()&lt;/div&gt;&lt;/div&gt;&lt;div style=&quot;forced-color-adjust: none; color: rgb(0, 0, 0); font-family: Helvetica; font-size: 12px; font-style: normal; font-variant-ligatures: normal; font-variant-caps: normal; font-weight: 400; letter-spacing: normal; orphans: 2; text-align: left; text-indent: 0px; text-transform: none; widows: 2; word-spacing: 0px; -webkit-text-stroke-width: 0px; white-space: normal; background-color: rgb(251, 251, 251); text-decoration-thickness: initial; text-decoration-style: initial; text-decoration-color: initial;&quot;&gt;+ bool isMoveLegal()&lt;/div&gt;&#xa;&#xa;" style="text;strokeColor=none;fillColor=none;align=left;verticalAlign=middle;spacingLeft=4;spacingRight=4;overflow=hidden;points=[[0,0.5],[1,0.5]];portConstraint=eastwest;rotatable=0;whiteSpace=wrap;html=1;" parent="4CrbES1AH4iWRrPJDii6-9" vertex="1">
          <mxGeometry y="30" width="150" height="60" as="geometry" />
        </mxCell>
        <mxCell id="4CrbES1AH4iWRrPJDii6-14" value="Queen" style="swimlane;fontStyle=0;childLayout=stackLayout;horizontal=1;startSize=30;horizontalStack=0;resizeParent=1;resizeParentMax=0;resizeLast=0;collapsible=1;marginBottom=0;whiteSpace=wrap;html=1;" parent="1" vertex="1">
          <mxGeometry x="680" y="280" width="150" height="100" as="geometry" />
        </mxCell>
        <mxCell id="4CrbES1AH4iWRrPJDii6-15" value="&#xa;&lt;div style=&quot;forced-color-adjust: none; color: rgb(0, 0, 0); font-family: Helvetica; font-size: 12px; font-style: normal; font-variant-ligatures: normal; font-variant-caps: normal; font-weight: 400; letter-spacing: normal; orphans: 2; text-align: left; text-indent: 0px; text-transform: none; widows: 2; word-spacing: 0px; -webkit-text-stroke-width: 0px; white-space: normal; background-color: rgb(251, 251, 251); text-decoration-thickness: initial; text-decoration-style: initial; text-decoration-color: initial;&quot;&gt;+ MovePlace()&lt;div style=&quot;forced-color-adjust: none;&quot;&gt;+ IsSelfCheck()&lt;/div&gt;&lt;/div&gt;&lt;div style=&quot;forced-color-adjust: none; color: rgb(0, 0, 0); font-family: Helvetica; font-size: 12px; font-style: normal; font-variant-ligatures: normal; font-variant-caps: normal; font-weight: 400; letter-spacing: normal; orphans: 2; text-align: left; text-indent: 0px; text-transform: none; widows: 2; word-spacing: 0px; -webkit-text-stroke-width: 0px; white-space: normal; background-color: rgb(251, 251, 251); text-decoration-thickness: initial; text-decoration-style: initial; text-decoration-color: initial;&quot;&gt;+ bool isMoveLegal()&lt;/div&gt;&#xa;&#xa;" style="text;strokeColor=none;fillColor=none;align=left;verticalAlign=middle;spacingLeft=4;spacingRight=4;overflow=hidden;points=[[0,0.5],[1,0.5]];portConstraint=eastwest;rotatable=0;whiteSpace=wrap;html=1;" parent="4CrbES1AH4iWRrPJDii6-14" vertex="1">
          <mxGeometry y="30" width="150" height="70" as="geometry" />
        </mxCell>
        <mxCell id="4CrbES1AH4iWRrPJDii6-18" value="Rook" style="swimlane;fontStyle=0;childLayout=stackLayout;horizontal=1;startSize=30;horizontalStack=0;resizeParent=1;resizeParentMax=0;resizeLast=0;collapsible=1;marginBottom=0;whiteSpace=wrap;html=1;" parent="1" vertex="1">
          <mxGeometry x="120" y="470" width="140" height="100" as="geometry" />
        </mxCell>
        <mxCell id="4CrbES1AH4iWRrPJDii6-19" value="&#xa;&lt;div style=&quot;forced-color-adjust: none; color: rgb(0, 0, 0); font-family: Helvetica; font-size: 12px; font-style: normal; font-variant-ligatures: normal; font-variant-caps: normal; font-weight: 400; letter-spacing: normal; orphans: 2; text-align: left; text-indent: 0px; text-transform: none; widows: 2; word-spacing: 0px; -webkit-text-stroke-width: 0px; white-space: normal; background-color: rgb(251, 251, 251); text-decoration-thickness: initial; text-decoration-style: initial; text-decoration-color: initial;&quot;&gt;+ MovePlace()&lt;div style=&quot;forced-color-adjust: none;&quot;&gt;+ IsSelfCheck()&lt;/div&gt;&lt;/div&gt;&lt;div style=&quot;forced-color-adjust: none; color: rgb(0, 0, 0); font-family: Helvetica; font-size: 12px; font-style: normal; font-variant-ligatures: normal; font-variant-caps: normal; font-weight: 400; letter-spacing: normal; orphans: 2; text-align: left; text-indent: 0px; text-transform: none; widows: 2; word-spacing: 0px; -webkit-text-stroke-width: 0px; white-space: normal; background-color: rgb(251, 251, 251); text-decoration-thickness: initial; text-decoration-style: initial; text-decoration-color: initial;&quot;&gt;+ bool isMoveLegal()&lt;/div&gt;&#xa;&#xa;" style="text;strokeColor=none;fillColor=none;align=left;verticalAlign=middle;spacingLeft=4;spacingRight=4;overflow=hidden;points=[[0,0.5],[1,0.5]];portConstraint=eastwest;rotatable=0;whiteSpace=wrap;html=1;" parent="4CrbES1AH4iWRrPJDii6-18" vertex="1">
          <mxGeometry y="30" width="140" height="70" as="geometry" />
        </mxCell>
        <mxCell id="4CrbES1AH4iWRrPJDii6-32" style="edgeStyle=orthogonalEdgeStyle;rounded=0;orthogonalLoop=1;jettySize=auto;html=1;entryX=0.417;entryY=1.033;entryDx=0;entryDy=0;entryPerimeter=0;" parent="1" target="4CrbES1AH4iWRrPJDii6-4" edge="1">
          <mxGeometry relative="1" as="geometry">
            <mxPoint x="399.9999999999998" y="470" as="sourcePoint" />
            <mxPoint x="400" y="140" as="targetPoint" />
          </mxGeometry>
        </mxCell>
        <mxCell id="4CrbES1AH4iWRrPJDii6-22" value="Bishop" style="swimlane;fontStyle=0;childLayout=stackLayout;horizontal=1;startSize=30;horizontalStack=0;resizeParent=1;resizeParentMax=0;resizeLast=0;collapsible=1;marginBottom=0;whiteSpace=wrap;html=1;" parent="1" vertex="1">
          <mxGeometry x="270" y="470" width="140" height="100" as="geometry" />
        </mxCell>
        <mxCell id="4CrbES1AH4iWRrPJDii6-23" value="&#xa;&lt;div style=&quot;forced-color-adjust: none; color: rgb(0, 0, 0); font-family: Helvetica; font-size: 12px; font-style: normal; font-variant-ligatures: normal; font-variant-caps: normal; font-weight: 400; letter-spacing: normal; orphans: 2; text-align: left; text-indent: 0px; text-transform: none; widows: 2; word-spacing: 0px; -webkit-text-stroke-width: 0px; white-space: normal; background-color: rgb(251, 251, 251); text-decoration-thickness: initial; text-decoration-style: initial; text-decoration-color: initial;&quot;&gt;+ MovePlace()&lt;div style=&quot;forced-color-adjust: none;&quot;&gt;+ IsSelfCheck()&lt;/div&gt;&lt;/div&gt;&lt;div style=&quot;forced-color-adjust: none; color: rgb(0, 0, 0); font-family: Helvetica; font-size: 12px; font-style: normal; font-variant-ligatures: normal; font-variant-caps: normal; font-weight: 400; letter-spacing: normal; orphans: 2; text-align: left; text-indent: 0px; text-transform: none; widows: 2; word-spacing: 0px; -webkit-text-stroke-width: 0px; white-space: normal; background-color: rgb(251, 251, 251); text-decoration-thickness: initial; text-decoration-style: initial; text-decoration-color: initial;&quot;&gt;+ bool isMoveLegal()&lt;/div&gt;&#xa;&#xa;" style="text;strokeColor=none;fillColor=none;align=left;verticalAlign=middle;spacingLeft=4;spacingRight=4;overflow=hidden;points=[[0,0.5],[1,0.5]];portConstraint=eastwest;rotatable=0;whiteSpace=wrap;html=1;" parent="4CrbES1AH4iWRrPJDii6-22" vertex="1">
          <mxGeometry y="30" width="140" height="70" as="geometry" />
        </mxCell>
        <mxCell id="4CrbES1AH4iWRrPJDii6-33" style="edgeStyle=orthogonalEdgeStyle;rounded=0;orthogonalLoop=1;jettySize=auto;html=1;entryX=0.786;entryY=1;entryDx=0;entryDy=0;entryPerimeter=0;" parent="1" source="4CrbES1AH4iWRrPJDii6-26" target="4CrbES1AH4iWRrPJDii6-4" edge="1">
          <mxGeometry relative="1" as="geometry">
            <mxPoint x="150" y="190" as="targetPoint" />
            <Array as="points">
              <mxPoint x="450" y="390" />
              <mxPoint x="450" y="390" />
            </Array>
          </mxGeometry>
        </mxCell>
        <mxCell id="4CrbES1AH4iWRrPJDii6-26" value="Knight" style="swimlane;fontStyle=0;childLayout=stackLayout;horizontal=1;startSize=30;horizontalStack=0;resizeParent=1;resizeParentMax=0;resizeLast=0;collapsible=1;marginBottom=0;whiteSpace=wrap;html=1;" parent="1" vertex="1">
          <mxGeometry x="430" y="470" width="140" height="100" as="geometry" />
        </mxCell>
        <mxCell id="4CrbES1AH4iWRrPJDii6-27" value="&#xa;&lt;div style=&quot;forced-color-adjust: none; color: rgb(0, 0, 0); font-family: Helvetica; font-size: 12px; font-style: normal; font-variant-ligatures: normal; font-variant-caps: normal; font-weight: 400; letter-spacing: normal; orphans: 2; text-align: left; text-indent: 0px; text-transform: none; widows: 2; word-spacing: 0px; -webkit-text-stroke-width: 0px; white-space: normal; background-color: rgb(251, 251, 251); text-decoration-thickness: initial; text-decoration-style: initial; text-decoration-color: initial;&quot;&gt;+ MovePlace()&lt;div style=&quot;forced-color-adjust: none;&quot;&gt;+ IsSelfCheck()&lt;/div&gt;&lt;/div&gt;&lt;div style=&quot;forced-color-adjust: none; color: rgb(0, 0, 0); font-family: Helvetica; font-size: 12px; font-style: normal; font-variant-ligatures: normal; font-variant-caps: normal; font-weight: 400; letter-spacing: normal; orphans: 2; text-align: left; text-indent: 0px; text-transform: none; widows: 2; word-spacing: 0px; -webkit-text-stroke-width: 0px; white-space: normal; background-color: rgb(251, 251, 251); text-decoration-thickness: initial; text-decoration-style: initial; text-decoration-color: initial;&quot;&gt;+ bool isMoveLegal()&lt;/div&gt;&#xa;&#xa;" style="text;strokeColor=none;fillColor=none;align=left;verticalAlign=middle;spacingLeft=4;spacingRight=4;overflow=hidden;points=[[0,0.5],[1,0.5]];portConstraint=eastwest;rotatable=0;whiteSpace=wrap;html=1;" parent="4CrbES1AH4iWRrPJDii6-26" vertex="1">
          <mxGeometry y="30" width="140" height="70" as="geometry" />
        </mxCell>
        <mxCell id="4CrbES1AH4iWRrPJDii6-30" style="edgeStyle=orthogonalEdgeStyle;rounded=0;orthogonalLoop=1;jettySize=auto;html=1;exitX=0.02;exitY=0.107;exitDx=0;exitDy=0;entryX=1;entryY=0.5;entryDx=0;entryDy=0;exitPerimeter=0;" parent="1" target="4CrbES1AH4iWRrPJDii6-3" edge="1" source="4CrbES1AH4iWRrPJDii6-5">
          <mxGeometry relative="1" as="geometry">
            <mxPoint x="270" y="355" as="sourcePoint" />
            <Array as="points">
              <mxPoint x="235" y="352" />
              <mxPoint x="235" y="330" />
              <mxPoint x="240" y="330" />
              <mxPoint x="240" y="350" />
              <mxPoint x="235" y="350" />
              <mxPoint x="235" y="240" />
              <mxPoint x="500" y="240" />
              <mxPoint x="500" y="70" />
            </Array>
          </mxGeometry>
        </mxCell>
        <mxCell id="4CrbES1AH4iWRrPJDii6-31" style="edgeStyle=orthogonalEdgeStyle;rounded=0;orthogonalLoop=1;jettySize=auto;html=1;entryX=0.5;entryY=1.022;entryDx=0;entryDy=0;entryPerimeter=0;" parent="1" source="4CrbES1AH4iWRrPJDii6-18" target="4CrbES1AH4iWRrPJDii6-4" edge="1">
          <mxGeometry relative="1" as="geometry">
            <Array as="points">
              <mxPoint x="190" y="210" />
              <mxPoint x="410" y="210" />
            </Array>
          </mxGeometry>
        </mxCell>
        <mxCell id="4CrbES1AH4iWRrPJDii6-34" style="edgeStyle=orthogonalEdgeStyle;rounded=0;orthogonalLoop=1;jettySize=auto;html=1;entryX=0.929;entryY=1;entryDx=0;entryDy=0;entryPerimeter=0;" parent="1" edge="1" target="4CrbES1AH4iWRrPJDii6-4" source="4CrbES1AH4iWRrPJDii6-10">
          <mxGeometry relative="1" as="geometry">
            <mxPoint x="480" y="355.0434782608696" as="sourcePoint" />
            <mxPoint x="470" y="140" as="targetPoint" />
            <Array as="points">
              <mxPoint x="590" y="470" />
              <mxPoint x="590" y="420" />
              <mxPoint x="470" y="420" />
            </Array>
          </mxGeometry>
        </mxCell>
        <mxCell id="4CrbES1AH4iWRrPJDii6-36" style="edgeStyle=orthogonalEdgeStyle;rounded=0;orthogonalLoop=1;jettySize=auto;html=1;entryX=1;entryY=0.5;entryDx=0;entryDy=0;" parent="1" edge="1">
          <mxGeometry relative="1" as="geometry">
            <mxPoint x="680" y="355.0434782608696" as="sourcePoint" />
            <mxPoint x="480" y="55" as="targetPoint" />
            <Array as="points">
              <mxPoint x="670" y="356" />
              <mxPoint x="670" y="55" />
            </Array>
          </mxGeometry>
        </mxCell>
        <mxCell id="4CrbES1AH4iWRrPJDii6-5" value="Pawn" style="swimlane;fontStyle=0;childLayout=stackLayout;horizontal=1;startSize=30;horizontalStack=0;resizeParent=1;resizeParentMax=0;resizeLast=0;collapsible=1;marginBottom=0;whiteSpace=wrap;html=1;" parent="1" vertex="1">
          <mxGeometry x="250" y="340" width="140" height="110" as="geometry">
            <mxRectangle x="270" y="280" width="70" height="30" as="alternateBounds" />
          </mxGeometry>
        </mxCell>
        <mxCell id="4CrbES1AH4iWRrPJDii6-6" value="- bool _isMoved&lt;div&gt;+ MovePlace()&lt;div&gt;+ IsSelfCheck()&lt;/div&gt;&lt;/div&gt;&lt;div&gt;+ bool isMoveLegal()&lt;/div&gt;" style="text;strokeColor=none;fillColor=none;align=left;verticalAlign=middle;spacingLeft=4;spacingRight=4;overflow=hidden;points=[[0,0.5],[1,0.5]];portConstraint=eastwest;rotatable=0;whiteSpace=wrap;html=1;" parent="4CrbES1AH4iWRrPJDii6-5" vertex="1">
          <mxGeometry y="30" width="140" height="80" as="geometry" />
        </mxCell>
        <mxCell id="4CrbES1AH4iWRrPJDii6-37" value="Game" style="swimlane;fontStyle=0;childLayout=stackLayout;horizontal=1;startSize=30;horizontalStack=0;resizeParent=1;resizeParentMax=0;resizeLast=0;collapsible=1;marginBottom=0;whiteSpace=wrap;html=1;" parent="1" vertex="1">
          <mxGeometry x="10" y="25" width="210" height="140" as="geometry" />
        </mxCell>
        <mxCell id="4CrbES1AH4iWRrPJDii6-38" value="- int _side&lt;div&gt;- bool _playsTurn&lt;br&gt;&lt;div&gt;- Player* []&amp;nbsp; pieces&lt;/div&gt;&lt;div&gt;+ Player* GetPlayer()&lt;/div&gt;&lt;div&gt;+void TryMove(int, int,&amp;nbsp;&lt;span style=&quot;background-color: initial;&quot;&gt;int, int, Player&lt;/span&gt;&lt;span style=&quot;background-color: initial;&quot;&gt;)&lt;/span&gt;&lt;/div&gt;&lt;/div&gt;&lt;div&gt;+ manageGame()&lt;/div&gt;&lt;div&gt;+ isCheck&lt;/div&gt;" style="text;strokeColor=none;fillColor=none;align=left;verticalAlign=middle;spacingLeft=4;spacingRight=4;overflow=hidden;points=[[0,0.5],[1,0.5]];portConstraint=eastwest;rotatable=0;whiteSpace=wrap;html=1;" parent="4CrbES1AH4iWRrPJDii6-37" vertex="1">
          <mxGeometry y="30" width="210" height="110" as="geometry" />
        </mxCell>
        <mxCell id="4CrbES1AH4iWRrPJDii6-46" value="NullPiece" style="swimlane;fontStyle=0;childLayout=stackLayout;horizontal=1;startSize=30;horizontalStack=0;resizeParent=1;resizeParentMax=0;resizeLast=0;collapsible=1;marginBottom=0;whiteSpace=wrap;html=1;" parent="1" vertex="1">
          <mxGeometry x="20" y="350" width="140" height="100" as="geometry" />
        </mxCell>
        <mxCell id="4CrbES1AH4iWRrPJDii6-47" value="&#xa;&lt;div style=&quot;forced-color-adjust: none; color: rgb(0, 0, 0); font-family: Helvetica; font-size: 12px; font-style: normal; font-variant-ligatures: normal; font-variant-caps: normal; font-weight: 400; letter-spacing: normal; orphans: 2; text-align: left; text-indent: 0px; text-transform: none; widows: 2; word-spacing: 0px; -webkit-text-stroke-width: 0px; white-space: normal; background-color: rgb(251, 251, 251); text-decoration-thickness: initial; text-decoration-style: initial; text-decoration-color: initial;&quot;&gt;+ MovePlace()&lt;div style=&quot;forced-color-adjust: none;&quot;&gt;+ IsSelfCheck()&lt;/div&gt;&lt;/div&gt;&lt;div style=&quot;forced-color-adjust: none; color: rgb(0, 0, 0); font-family: Helvetica; font-size: 12px; font-style: normal; font-variant-ligatures: normal; font-variant-caps: normal; font-weight: 400; letter-spacing: normal; orphans: 2; text-align: left; text-indent: 0px; text-transform: none; widows: 2; word-spacing: 0px; -webkit-text-stroke-width: 0px; white-space: normal; background-color: rgb(251, 251, 251); text-decoration-thickness: initial; text-decoration-style: initial; text-decoration-color: initial;&quot;&gt;+ bool isMoveLegal()&lt;/div&gt;&#xa;&#xa;" style="text;strokeColor=none;fillColor=none;align=left;verticalAlign=middle;spacingLeft=4;spacingRight=4;overflow=hidden;points=[[0,0.5],[1,0.5]];portConstraint=eastwest;rotatable=0;whiteSpace=wrap;html=1;" parent="4CrbES1AH4iWRrPJDii6-46" vertex="1">
          <mxGeometry y="30" width="140" height="70" as="geometry" />
        </mxCell>
        <mxCell id="4CrbES1AH4iWRrPJDii6-50" style="edgeStyle=orthogonalEdgeStyle;rounded=0;orthogonalLoop=1;jettySize=auto;html=1;entryX=-0.029;entryY=0.857;entryDx=0;entryDy=0;entryPerimeter=0;" parent="1" source="4CrbES1AH4iWRrPJDii6-46" target="4CrbES1AH4iWRrPJDii6-3" edge="1">
          <mxGeometry relative="1" as="geometry">
            <mxPoint x="290" y="180" as="targetPoint" />
            <Array as="points">
              <mxPoint x="90" y="190" />
              <mxPoint x="290" y="190" />
              <mxPoint x="290" y="91" />
            </Array>
          </mxGeometry>
        </mxCell>
        <mxCell id="eRxZrlaiPW3UhjMKaGua-2" value="" style="shape=flexArrow;endArrow=classic;html=1;rounded=0;width=11.904761904761905;endSize=9.3;" edge="1" parent="1">
          <mxGeometry width="50" height="50" relative="1" as="geometry">
            <mxPoint x="220" y="50" as="sourcePoint" />
            <mxPoint x="330" y="52" as="targetPoint" />
          </mxGeometry>
        </mxCell>
        <mxCell id="4CrbES1AH4iWRrPJDii6-42" value="" style="rhombus;whiteSpace=wrap;html=1;" parent="1" vertex="1">
          <mxGeometry x="280" y="20" width="60" height="60" as="geometry" />
        </mxCell>
      </root>
    </mxGraphModel>
  </diagram>
</mxfile>
